# Broken statue: pedestal + truncated torso + fallen head nearby.
# Origin at pedestal floor center.
o BrokenStatue
# Pedestal
v -0.55 0.00 -0.55
v  0.55 0.00 -0.55
v  0.55 0.00  0.55
v -0.55 0.00  0.55
v -0.50 0.70 -0.50
v  0.50 0.70 -0.50
v  0.50 0.70  0.50
v -0.50 0.70  0.50
# Torso stump
v -0.32 0.70 -0.25
v  0.32 0.70 -0.25
v  0.32 0.70  0.25
v -0.32 0.70  0.25
v -0.28 1.85 -0.20
v  0.28 1.85 -0.20
v  0.22 1.95  0.18
v -0.18 1.90  0.22
# Broken shoulder nub
v  0.28 1.55 -0.05
v  0.55 1.40  0.05
v  0.50 1.55  0.20
v  0.22 1.70  0.10
# Fallen head (offset +X)
v  0.90 0.00  0.70
v  1.35 0.00  0.70
v  1.35 0.00  1.15
v  0.90 0.00  1.15
v  0.95 0.40  0.75
v  1.30 0.42  0.75
v  1.28 0.38  1.10
v  0.92 0.36  1.10

f 1 2 6 5
f 2 3 7 6
f 3 4 8 7
f 4 1 5 8
f 5 6 7 8
f 9 10 14 13
f 10 11 15 14
f 11 12 16 15
f 12 9 13 16
f 13 14 15 16
f 17 18 19 20
f 21 22 26 25
f 22 23 27 26
f 23 24 28 27
f 24 21 25 28
f 25 26 27 28
