# Iron gate: frame + vertical bars. Origin at floor center, faces +Z.
# Width ~3.6, height ~4.2, depth ~0.25
o IronGate
# Outer frame
v -1.80 0.00 -0.12
v  1.80 0.00 -0.12
v  1.80 0.00  0.12
v -1.80 0.00  0.12
v -1.80 4.20 -0.12
v  1.80 4.20 -0.12
v  1.80 4.20  0.12
v -1.80 4.20  0.12
# Left post
v -1.80 0.00 -0.18
v -1.55 0.00 -0.18
v -1.55 0.00  0.18
v -1.80 0.00  0.18
v -1.80 4.20 -0.18
v -1.55 4.20 -0.18
v -1.55 4.20  0.18
v -1.80 4.20  0.18
# Right post
v  1.55 0.00 -0.18
v  1.80 0.00 -0.18
v  1.80 0.00  0.18
v  1.55 0.00  0.18
v  1.55 4.20 -0.18
v  1.80 4.20 -0.18
v  1.80 4.20  0.18
v  1.55 4.20  0.18
# Top beam
v -1.80 3.85 -0.16
v  1.80 3.85 -0.16
v  1.80 4.20  0.16
v -1.80 4.20  0.16
# Bars (7 thin uprights) - simplified as quads
v -1.20 0.15 -0.06
v -1.08 0.15 -0.06
v -1.08 0.15  0.06
v -1.20 0.15  0.06
v -1.20 3.80 -0.06
v -1.08 3.80 -0.06
v -1.08 3.80  0.06
v -1.20 3.80  0.06

v -0.70 0.15 -0.06
v -0.58 0.15 -0.06
v -0.58 0.15  0.06
v -0.70 0.15  0.06
v -0.70 3.80 -0.06
v -0.58 3.80 -0.06
v -0.58 3.80  0.06
v -0.70 3.80  0.06

v -0.20 0.15 -0.06
v -0.08 0.15 -0.06
v -0.08 0.15  0.06
v -0.20 0.15  0.06
v -0.20 3.80 -0.06
v -0.08 3.80 -0.06
v -0.08 3.80  0.06
v -0.20 3.80  0.06

v  0.20 0.15 -0.06
v  0.32 0.15 -0.06
v  0.32 0.15  0.06
v  0.20 0.15  0.06
v  0.20 3.80 -0.06
v  0.32 3.80 -0.06
v  0.32 3.80  0.06
v  0.20 3.80  0.06

v  0.70 0.15 -0.06
v  0.82 0.15 -0.06
v  0.82 0.15  0.06
v  0.70 0.15  0.06
v  0.70 3.80 -0.06
v  0.82 3.80 -0.06
v  0.82 3.80  0.06
v  0.70 3.80  0.06

v  1.10 0.15 -0.06
v  1.22 0.15 -0.06
v  1.22 0.15  0.06
v  1.10 0.15  0.06
v  1.10 3.80 -0.06
v  1.22 3.80 -0.06
v  1.22 3.80  0.06
v  1.10 3.80  0.06

# Left post faces
f 9 10 14 13
f 10 11 15 14
f 11 12 16 15
f 12 9 13 16
f 13 14 15 16
# Right post
f 17 18 22 21
f 18 19 23 22
f 19 20 24 23
f 20 17 21 24
f 21 22 23 24
# Top
f 25 26 27 28
# Bars
f 29 30 34 33
f 30 31 35 34
f 31 32 36 35
f 32 29 33 36
f 33 34 35 36

f 37 38 42 41
f 38 39 43 42
f 39 40 44 43
f 40 37 41 44
f 41 42 43 44

f 45 46 50 49
f 46 47 51 50
f 47 48 52 51
f 48 45 49 52
f 49 50 51 52

f 53 54 58 57
f 54 55 59 58
f 55 56 60 59
f 56 53 57 60
f 57 58 59 60

f 61 62 66 65
f 62 63 67 66
f 63 64 68 67
f 64 61 65 68
f 65 66 67 68

f 69 70 74 73
f 70 71 75 74
f 71 72 76 75
f 72 69 73 76
f 73 74 75 76
