# Low-poly stone sarcophagus (unit-ish: ~2.4 x 1.4 x 1.2)
# Origin at floor center; lid slightly ajar on +Z.
o Sarcophagus
v -1.10 0.00 -0.55
v  1.10 0.00 -0.55
v  1.10 0.00  0.55
v -1.10 0.00  0.55
v -1.05 0.95 -0.50
v  1.05 0.95 -0.50
v  1.05 0.95  0.50
v -1.05 0.95  0.50
# Lid (raised / ajar)
v -1.00 1.05 -0.48
v  1.00 1.05 -0.48
v  1.00 1.22  0.42
v -1.00 1.22  0.42
# Pedestal lip
v -1.20 0.00 -0.65
v  1.20 0.00 -0.65
v  1.20 0.12  0.65
v -1.20 0.12  0.65
v -1.20 0.12 -0.65
v  1.20 0.12 -0.65
v  1.20 0.00  0.65
v -1.20 0.00  0.65

# Body faces
f 1 2 6 5
f 2 3 7 6
f 3 4 8 7
f 4 1 5 8
f 5 6 7 8
# Lid
f 9 10 11 12
f 5 6 10 9
f 6 7 11 10
f 7 8 12 11
f 8 5 9 12
# Base lip (top)
f 17 18 15 16
