# Blender 5.2.0 LTS
# www.blender.org
o grass_clump
v -0.008083 0.265604 0.043382
v 0.000334 0.255536 0.053569
v -0.003541 0.262084 0.049726
v -0.003547 0.250410 0.047216
v -0.008306 0.252188 0.042003
v -0.018154 0.257884 0.031012
v -0.010159 0.241778 0.042158
v -0.014883 0.243819 0.036398
v -0.019938 0.212809 0.030933
v -0.020883 0.213318 0.029684
v -0.020226 0.202073 0.028804
v -0.020979 0.202499 0.027721
v -0.020130 0.212941 0.029789
v -0.020572 0.212284 0.031392
v -0.020158 0.200460 0.026853
v -0.020569 0.199375 0.028446
v -0.020139 0.187881 0.023278
v -0.020286 0.186912 0.025429
v -0.021134 0.144868 0.015449
v -0.020553 0.143260 0.017249
v -0.025345 0.101267 0.005232
v -0.024616 0.099872 0.007485
v -0.021565 0.001788 0.002492
v -0.021494 0.000000 0.005098
v -0.024072 0.002699 0.004509
v -0.023138 0.002384 0.002170
v -0.027538 0.100842 -0.003220
v -0.026182 0.100684 -0.005484
v -0.031225 0.149273 -0.007161
v -0.029692 0.149291 -0.009125
v -0.028332 0.213013 -0.014847
v -0.026511 0.212713 -0.016443
v -0.024673 0.247755 -0.017061
v -0.022914 0.247773 -0.018077
v -0.021357 0.265809 -0.020774
v -0.020073 0.265071 -0.021442
v -0.023635 0.249848 -0.018582
v -0.022362 0.249834 -0.017154
v -0.019767 0.272678 -0.024163
v -0.018042 0.272658 -0.022259
v -0.013767 0.301957 -0.026004
v -0.006939 0.300400 -0.018281
v -0.011012 0.322546 -0.029634
v -0.000078 0.310543 -0.013916
v -0.011277 0.088204 -0.016526
v -0.012727 0.088592 -0.015613
v -0.001960 0.117811 -0.031133
v -0.002954 0.118408 -0.031460
v 0.002777 0.127133 -0.036011
v 0.001895 0.127777 -0.036628
v 0.006689 0.134772 -0.040213
v 0.005532 0.135130 -0.040732
v -0.000296 0.121776 -0.033174
v -0.000962 0.121858 -0.033387
v 0.003481 0.130104 -0.037834
v 0.002624 0.130286 -0.038159
v 0.007439 0.135160 -0.040519
v 0.003661 0.135995 -0.041773
v 0.011294 0.142348 -0.043557
v 0.005262 0.140860 -0.044602
v 0.016582 0.155325 -0.048337
v 0.007187 0.155630 -0.050713
v 0.022393 0.169036 -0.070201
v 0.018536 0.167512 -0.067837
v -0.016656 0.053815 -0.006775
v -0.018210 0.054458 -0.005836
v -0.022136 0.055101 0.003551
v -0.024550 0.055038 0.002745
v -0.024295 0.055014 0.004417
v -0.020286 0.005188 0.003007
v -0.021352 0.055128 0.001971
v -0.021411 0.005185 0.003650
v -0.025867 0.099936 -0.003480
v -0.027547 0.100788 -0.004375
v -0.024332 0.116770 -0.006195
v -0.026107 0.117692 -0.007931
v -0.022378 0.128927 -0.007978
v -0.023785 0.129572 -0.010049
v -0.019552 0.142848 -0.009680
v -0.019671 0.143464 -0.013902
v -0.006393 0.174946 -0.011625
v -0.005585 0.175531 -0.015864
v 0.002636 0.184805 -0.010131
v 0.003249 0.185540 -0.014364
v 0.028299 0.206539 -0.012332
v 0.027189 0.208677 -0.016725
v 0.058230 0.237651 -0.015900
v 0.056783 0.239231 -0.016462
v -0.024941 0.079325 -0.002074
v -0.028782 0.093737 -0.002605
v -0.029094 0.094585 0.000223
v -0.035384 0.118466 -0.002130
v -0.036754 0.118515 0.000223
v -0.025562 0.082393 -0.002120
v -0.039121 0.155604 -0.000758
v -0.042022 0.152590 0.001343
v -0.044206 0.169520 -0.002566
v -0.047648 0.167685 0.000266
v -0.069812 0.186184 -0.013886
v -0.071479 0.184298 -0.009149
v -0.102080 0.190942 -0.031019
v -0.102726 0.191649 -0.028907
v -0.024817 0.080788 -0.000496
v -0.021056 0.109009 -0.001841
v -0.017083 0.108899 -0.001719
v -0.013605 0.128061 0.003296
v -0.012829 0.126006 0.002552
v -0.008583 0.132229 0.009798
v -0.007603 0.131173 0.009064
v -0.001409 0.134197 0.015225
v -0.000820 0.133010 0.013714
v 0.008184 0.131810 0.021395
v 0.009111 0.131675 0.019147
v 0.017042 0.126029 0.027612
v 0.017981 0.126926 0.026225
v 0.026000 0.122186 0.032425
v 0.026755 0.123026 0.031513
v -0.022676 0.084174 -0.002077
v -0.026541 0.092638 -0.004153
v -0.029360 0.110328 -0.004314
v -0.029590 0.111438 -0.001456
v -0.032869 0.144975 -0.002717
v -0.034195 0.145166 -0.000349
v -0.030490 0.195685 -0.000830
v -0.034920 0.192432 0.000724
v -0.038493 0.229480 -0.005947
v -0.042011 0.227961 -0.003393
v -0.064280 0.256020 -0.022437
v -0.065270 0.256151 -0.018105
v -0.077759 0.265217 -0.027132
v -0.077784 0.266245 -0.025054
v -0.026361 0.094277 -0.002556
v 0.025688 0.073747 -0.054462
v 0.024294 0.074259 -0.057319
v 0.030788 0.046584 -0.064648
v 0.031058 0.047248 -0.065996
v 0.015116 0.091043 -0.045622
v 0.017580 0.091372 -0.042361
v 0.008291 0.092757 -0.039646
v 0.010322 0.093116 -0.036028
v -0.005454 0.088571 -0.021205
v -0.002684 0.086906 -0.019311
v -0.011170 0.076271 -0.016002
v -0.008191 0.074329 -0.014559
v -0.018797 0.051670 -0.005619
v -0.017502 0.049944 -0.005783
v -0.023516 0.094196 -0.020572
v -0.024834 0.095147 -0.017792
v -0.036693 0.102752 -0.028012
v -0.037106 0.104041 -0.026079
v -0.042976 0.112404 -0.033118
v -0.042711 0.113338 -0.031939
v -0.014725 0.075991 -0.011931
v -0.012965 0.075387 -0.013202
v 0.000084 0.118804 -0.012403
v 0.002869 0.116366 -0.014899
v 0.015122 0.124969 -0.005465
v 0.016489 0.123715 -0.008893
v 0.027750 0.121664 -0.004103
v 0.028162 0.121504 -0.005565
v -0.011961 0.083348 -0.014460
v -0.014213 0.083337 -0.014413
v -0.007293 0.106235 -0.014124
v -0.003725 0.105518 -0.016777
v -0.020272 0.150064 0.060391
v -0.024532 0.149337 0.046674
v -0.017987 0.152308 0.060055
v -0.013073 0.147219 0.075957
v -0.012014 0.149327 0.075986
v -0.011074 0.148493 0.088330
v -0.010904 0.150009 0.088255
v -0.022047 0.150545 0.046586
v -0.021779 0.146191 0.038802
v -0.023825 0.145346 0.038380
v -0.019922 0.136887 0.027715
v -0.021931 0.136355 0.026920
v -0.023236 0.122918 0.018581
v -0.025410 0.120995 0.019572
v -0.024227 0.089089 0.004962
v -0.025080 0.087423 0.006046
v -0.027172 0.123048 -0.005786
v -0.028647 0.112150 -0.005399
v -0.025032 0.123240 -0.007744
v -0.023936 0.138889 -0.004558
v -0.021979 0.138596 -0.007210
v -0.018295 0.160689 0.001185
v -0.016471 0.158852 -0.001210
v 0.002886 0.183566 0.003292
v 0.004067 0.182386 0.000168
v 0.036163 0.182488 0.012393
v 0.036352 0.183364 0.011250
v -0.027411 0.112913 -0.005380
v 0.039100 0.002032 -0.027677
v 0.038523 0.002318 -0.027937
v 0.028237 0.089958 -0.008385
v 0.027166 0.090816 -0.010181
v 0.027993 0.139719 0.006300
v 0.027281 0.140492 0.005226
v 0.032817 0.151244 0.011393
v 0.032179 0.152071 0.010109
v 0.039206 0.164189 0.015274
v 0.038836 0.164760 0.014518
v 0.042087 0.172756 0.017649
v 0.041949 0.173004 0.016838
v 0.035834 0.000743 -0.026858
v 0.037454 0.000993 -0.028793
v 0.038499 0.093695 -0.025060
v 0.040611 0.094071 -0.026521
v 0.043372 0.154965 -0.021529
v 0.045355 0.155288 -0.022557
v 0.048298 0.193083 -0.017007
v 0.050377 0.192983 -0.017524
v 0.052543 0.209064 -0.012537
v 0.055061 0.209170 -0.013045
v 0.056330 0.222252 -0.008940
v 0.058722 0.221874 -0.009791
v 0.028576 0.114724 -0.002499
v 0.027353 0.115737 -0.004909
v 0.040843 0.168314 0.016421
v 0.040442 0.168821 0.015679
v 0.036492 0.157623 0.012989
v 0.036280 0.157888 0.012302
v 0.040618 0.168837 0.015956
v 0.040377 0.169113 0.015272
v 0.052898 0.188731 0.040211
v 0.043180 0.186315 0.016506
v 0.046573 0.203267 0.029049
v 0.046849 0.199604 0.020775
v 0.040910 0.220872 0.033028
v 0.040130 0.221225 0.026944
v 0.051076 0.196434 0.034928
v 0.042226 0.179067 0.016887
v 0.051312 0.178097 0.039279
v 0.040388 0.225935 0.034705
v 0.037493 0.000000 -0.029885
v 0.038294 0.001028 -0.028262
v 0.024255 0.130624 -0.033944
v 0.025002 0.131514 -0.032536
v 0.013610 0.163420 -0.041086
v 0.013496 0.163913 -0.040004
v 0.010751 0.174106 -0.044012
v 0.010347 0.174718 -0.043008
v 0.008195 0.182906 -0.046422
v 0.007837 0.183182 -0.045196
v 0.013389 0.162869 -0.040561
v 0.012673 0.162573 -0.040706
v 0.010211 0.173910 -0.043851
v 0.009495 0.173613 -0.043998
v 0.020727 0.204291 -0.048338
v 0.003334 0.190333 -0.049562
v 0.003902 0.210262 -0.049294
v -0.000757 0.203822 -0.050956
v 0.005085 0.226685 -0.050954
v -0.001180 0.226176 -0.052707
v 0.013224 0.208750 -0.049653
v 0.006734 0.181702 -0.046930
v 0.024598 0.196204 -0.045600
v 0.006422 0.232089 -0.052144
v 0.048769 0.193112 -0.015868
v 0.049717 0.193039 -0.017320
v 0.053311 0.207571 -0.012007
v 0.054476 0.207612 -0.013738
v 0.055766 0.217026 -0.008802
v 0.058680 0.216713 -0.014055
v 0.058376 0.229108 -0.006652
v 0.061283 0.224902 -0.013904
v 0.059577 0.240614 -0.003593
v 0.067002 0.231953 -0.020382
v 0.068513 0.267392 -0.004629
v 0.071089 0.265947 -0.010160
v 0.075368 0.285663 -0.001541
v 0.075815 0.280546 -0.006418
v 0.031301 0.096190 -0.030778
v 0.032142 0.097119 -0.029261
v 0.039783 0.068217 -0.023614
v 0.039256 0.068053 -0.027803
v 0.040674 0.077257 -0.023519
v 0.040500 0.077480 -0.026360
v 0.043587 0.092346 -0.023442
v 0.043178 0.094705 -0.026910
v 0.057528 0.122160 -0.026180
v 0.057579 0.123624 -0.030983
v 0.073158 0.139846 -0.028036
v 0.072316 0.140218 -0.031883
v 0.078760 0.140808 -0.025984
v 0.079828 0.142725 -0.027889
v 0.089253 0.138852 -0.023205
v 0.089369 0.139733 -0.025078
v 0.096063 0.129766 -0.024510
v 0.095420 0.129526 -0.026216
v 0.099224 0.123729 -0.023842
v 0.098504 0.123466 -0.025822
v 0.102726 0.116103 -0.023414
v 0.038137 0.067030 -0.025157
v 0.038172 0.073141 -0.025000
v 0.038032 0.070867 -0.026298
v 0.039940 0.073538 -0.024421
v 0.036485 0.081517 -0.021062
v 0.038292 0.081918 -0.020454
v 0.035839 0.103777 -0.000023
v 0.040097 0.103675 -0.000293
v 0.039591 0.101556 0.024480
v 0.044347 0.101513 0.022253
v 0.034505 0.082195 0.040095
v 0.039405 0.081837 0.037855
v 0.028012 0.067970 0.039699
v 0.029907 0.066814 0.039440
v 0.022110 0.058834 0.046419
v 0.023612 0.058022 0.046459
v 0.039420 0.071330 -0.025811
v 0.038822 0.072548 -0.027282
v 0.038067 0.071708 -0.025358
v 0.036080 0.084048 -0.027409
v 0.034679 0.082338 -0.024610
v 0.028974 0.095661 -0.027685
v 0.026922 0.093853 -0.023028
v 0.017878 0.104019 -0.034875
v 0.016620 0.104409 -0.033070
v 0.016139 0.116168 -0.042141
v 0.015370 0.116614 -0.040683
v 0.040754 0.104594 -0.026309
v 0.039929 0.103730 -0.024459
v 0.040434 0.117040 -0.026164
v 0.038459 0.115124 -0.023242
v 0.017710 0.169161 -0.036175
v 0.019588 0.167207 -0.031353
v -0.003993 0.166431 -0.039668
v -0.004282 0.167012 -0.037528
v -0.015687 0.161365 -0.041012
v -0.016040 0.162007 -0.039470
v 0.038936 0.148484 -0.032621
v 0.037668 0.146489 -0.027947
v 0.041759 0.107628 -0.022289
v 0.041231 0.107465 -0.026479
v 0.042434 0.116969 -0.022100
v 0.042269 0.117180 -0.024944
v 0.045433 0.134974 -0.021278
v 0.044882 0.137731 -0.024843
v 0.055083 0.165927 -0.028975
v 0.053633 0.166163 -0.034045
v 0.060086 0.184213 -0.040451
v 0.057701 0.182774 -0.042741
v 0.064807 0.197982 -0.052004
v 0.061103 0.198688 -0.053023
v 0.071617 0.209782 -0.060481
v 0.069173 0.208883 -0.061470
v 0.077382 0.215230 -0.071843
v 0.076239 0.213251 -0.072787
v 0.084922 0.214206 -0.079190
v 0.083570 0.211960 -0.080288
v 0.094092 0.212202 -0.088330
v 0.040112 0.106441 -0.023833
v 0.032716 0.086966 -0.030701
v 0.032227 0.086647 -0.028902
v 0.032167 0.089718 -0.030987
v 0.031527 0.089155 -0.028450
v 0.029465 0.102716 -0.031196
v 0.029080 0.102765 -0.028667
v 0.021344 0.122305 -0.034824
v 0.021505 0.123058 -0.032369
v 0.014974 0.131783 -0.037864
v 0.015767 0.133521 -0.036094
v 0.004493 0.136791 -0.042065
v 0.004105 0.138199 -0.040310
v -0.005633 0.136817 -0.042997
v -0.005914 0.137530 -0.041346
v -0.017483 0.135862 -0.041575
v -0.017640 0.135803 -0.039883
v -0.025409 0.132078 -0.039587
v -0.025445 0.132099 -0.038227
v -0.031154 0.128952 -0.036284
v -0.031122 0.129147 -0.035088
v 0.030550 0.104490 -0.030787
v 0.029181 0.103981 -0.030757
v 0.030301 0.106615 -0.031268
v 0.028327 0.105788 -0.031175
v 0.027718 0.120113 -0.033360
v 0.025230 0.119627 -0.033045
v 0.026031 0.139658 -0.037039
v 0.023640 0.139919 -0.036141
v 0.023471 0.152210 -0.051052
v 0.021703 0.153850 -0.050152
v 0.021335 0.152607 -0.065734
v 0.019215 0.152893 -0.066607
v 0.021926 0.144744 -0.072397
v 0.020269 0.144599 -0.072658
v 0.022536 0.134752 -0.078563
v 0.020967 0.134234 -0.078163
v 0.024311 0.126476 -0.079999
v 0.023097 0.126188 -0.079669
v 0.024658 0.120033 -0.080235
v 0.023523 0.119929 -0.080039
v 0.026786 0.130288 -0.034840
v 0.024335 0.130214 -0.034195
v 0.028481 0.107778 -0.029910
v 0.029824 0.107313 -0.031604
v 0.027179 0.121957 -0.031279
v 0.029398 0.120600 -0.033329
v 0.032999 0.153199 -0.038149
v 0.034772 0.152964 -0.041439
v 0.053549 0.189359 -0.049661
v 0.054046 0.189007 -0.051619
v 0.068442 0.195623 -0.055180
v 0.068570 0.195502 -0.056192
v 0.042378 0.179951 -0.042723
v 0.041805 0.177657 -0.044186
v 0.027970 0.132385 -0.032826
v 0.030079 0.131464 -0.035332
v 0.028506 0.078076 -0.013140
v 0.028960 0.077753 -0.010268
v 0.027969 0.085807 -0.010852
v 0.028195 0.085822 -0.008421
v 0.022608 0.097961 -0.009611
v 0.022775 0.099808 -0.006344
v -0.006900 0.134999 -0.002284
v -0.006401 0.135130 0.001798
v -0.034346 0.117463 -0.007066
v -0.034743 0.118452 -0.003989
v -0.042207 0.105134 -0.006186
v -0.041405 0.104751 -0.004250
v -0.043958 0.096219 -0.007605
v -0.043049 0.095794 -0.005385
v -0.047222 0.087509 -0.010067
v 0.029670 0.077171 -0.012169
v 0.028902 0.093263 -0.007304
v 0.026888 0.094465 -0.008935
v 0.034368 0.116112 -0.009275
v 0.031907 0.116652 -0.010715
v 0.038909 0.119261 -0.011697
v 0.037587 0.119919 -0.014449
v 0.043391 0.115389 -0.017650
v 0.042026 0.116445 -0.018982
v 0.049005 0.104989 -0.024157
v 0.047256 0.104499 -0.024898
v 0.051920 0.097077 -0.024957
v 0.049919 0.096530 -0.025814
v 0.056463 0.089550 -0.026068
v 0.030421 0.105878 -0.007538
v 0.028418 0.106658 -0.008913
vn -0.7816 -0.0509 0.6217
vn -0.7753 -0.1323 0.6175
vn -0.7789 -0.0943 0.6200
vn -0.7659 -0.0463 0.6413
vn -0.7543 0.0264 0.6560
vn -0.7520 0.0226 0.6588
vn -0.7465 0.0897 0.6593
vn -0.7440 0.0752 0.6639
vn -0.8003 -0.0383 0.5984
vn -0.7989 -0.0352 0.6004
vn -0.8224 -0.0919 0.5615
vn -0.9717 0.0542 -0.2298
vn -0.9804 0.0421 -0.1925
vn -0.9845 0.0354 -0.1716
vn -0.9995 0.0111 -0.0301
vn -1.0000 0.0074 0.0014
vn -0.9835 0.0026 0.1806
vn -0.9687 0.0095 0.2479
vn -0.9577 0.0010 0.2879
vn -0.9636 -0.0096 0.2671
vn -0.9972 -0.0531 0.0535
vn -0.9147 0.0279 -0.4031
vn -0.8442 -0.1377 -0.5180
vn -0.8444 -0.1380 -0.5176
vn -0.7808 -0.0770 -0.6201
vn -0.7762 -0.0741 -0.6261
vn -0.6615 -0.0146 -0.7498
vn -0.6623 -0.0149 -0.7491
vn -0.5504 -0.0281 -0.8344
vn -0.5394 -0.0406 -0.8411
vn -0.4977 -0.0861 -0.8631
vn -0.7126 0.2785 0.6439
vn -0.7161 0.2348 0.6573
vn -0.7164 0.2309 0.6584
vn -0.7179 0.2002 0.6668
vn -0.7178 0.2014 0.6664
vn -0.7176 0.2086 0.6645
vn 0.4453 0.2531 0.8589
vn 0.4672 0.2329 0.8529
vn 0.1637 0.4217 0.8918
vn 0.0920 0.4495 0.8885
vn -0.1307 0.5240 0.8416
vn -0.1510 0.5323 0.8329
vn -0.1866 0.5463 0.8165
vn 0.1944 -0.5446 -0.8158
vn 0.1746 -0.5488 -0.8175
vn 0.1749 -0.5488 -0.8175
vn 0.1979 -0.5275 -0.8262
vn 0.1962 -0.5285 -0.8259
vn 0.2280 -0.4393 -0.8689
vn 0.2283 -0.4681 -0.8537
vn 0.1537 -0.6757 -0.7210
vn 0.1673 -0.6350 -0.7542
vn 0.0786 -0.8489 -0.5227
vn 0.5398 0.1365 0.8306
vn 0.5420 0.1378 0.8290
vn -0.8955 -0.0672 -0.4399
vn -0.9888 -0.0399 0.1439
vn -0.9886 -0.0397 0.1450
vn 0.5267 0.1286 0.8402
vn -0.8932 -0.0764 -0.4432
vn -0.5267 0.2000 0.8262
vn -0.5958 0.2145 0.7739
vn -0.6367 0.2226 0.7383
vn -0.8102 0.2621 0.5243
vn -0.8486 0.2709 0.4544
vn -0.9302 0.3342 0.1520
vn -0.9305 0.3516 0.1021
vn -0.8531 0.5214 -0.0201
vn -0.8318 0.5547 -0.0201
vn -0.7026 0.7030 0.1105
vn -0.6882 0.7101 0.1489
vn -0.5958 0.6586 0.4597
vn -0.5819 0.6352 0.5078
vn -0.5170 0.5349 0.6683
vn 0.9556 0.2757 -0.1040
vn 0.9598 0.2776 0.0412
vn 0.9540 0.2764 0.1158
vn 0.8563 0.1821 0.4834
vn 0.8350 0.1630 0.5256
vn 0.0221 0.0080 -0.9997
vn 0.5469 0.1957 0.8140
vn 0.6247 0.1323 0.7696
vn 0.3908 0.5422 0.7438
vn 0.3909 0.5420 0.7439
vn 0.1679 0.9155 0.3656
vn 0.2000 0.8834 0.4238
vn 0.0741 0.9783 0.1935
vn 0.0085 0.1121 -0.9937
vn 0.0037 0.1488 -0.9889
vn 0.3023 0.5027 -0.8099
vn 0.1121 0.3580 -0.9270
vn 0.3093 0.6805 -0.6643
vn 0.3218 0.6661 -0.6729
vn 0.2754 0.8798 -0.3873
vn 0.2667 0.8597 -0.4356
vn 0.3021 0.9484 0.0960
vn 0.3039 0.9521 0.0346
vn 0.1310 0.8596 0.4938
vn 0.1627 0.8712 0.4632
vn 0.0035 0.7966 0.6045
vn 0.9803 0.1727 -0.0955
vn 0.9881 0.1493 0.0374
vn 0.9825 0.1307 0.1328
vn 0.8330 0.0423 0.5517
vn 0.8002 0.0306 0.5989
vn 0.4294 0.1259 0.8943
vn 0.5058 0.0460 0.8614
vn 0.4621 0.5088 0.7263
vn 0.4516 0.4721 0.7571
vn 0.5828 0.7893 0.1935
vn 0.5694 0.7803 0.2586
vn 0.6088 0.7920 -0.0470
vn 0.8237 0.4738 -0.3113
vn 0.8447 0.4473 -0.2940
vn 0.9466 0.2692 -0.1777
vn 0.4430 0.8386 -0.3171
vn 0.3761 0.8805 -0.2887
vn 0.0470 0.9989 0.0047
vn 0.0209 0.9960 0.0870
vn -0.1297 0.8039 0.5805
vn -0.1514 0.7441 0.6507
vn -0.1259 0.4151 0.9010
vn -0.0762 0.3970 0.9147
vn 0.0261 0.3563 0.9340
vn 0.7231 0.6768 0.1384
vn 0.7117 0.6958 0.0967
vn 0.7589 0.6209 -0.1963
vn 0.7738 0.6002 -0.2025
vn 0.8787 0.4071 -0.2492
vn 0.7569 0.5401 0.3679
vn -0.2907 0.6328 -0.7177
vn -0.3051 0.6152 -0.7269
vn 0.0578 0.9090 -0.4127
vn 0.0692 0.9137 -0.4004
vn 0.2511 0.9504 -0.1833
vn -0.4091 0.0967 -0.9074
vn -0.4346 0.2350 -0.8694
vn -0.4392 0.2659 -0.8582
vn -0.6530 0.7159 0.2473
vn -0.4663 0.8579 -0.2159
vn -0.6630 0.6983 0.2699
vn -0.8410 0.4702 0.2675
vn -0.8542 0.4559 0.2499
vn -0.9425 0.3210 0.0934
vn -0.4977 0.8556 -0.1423
vn -0.2339 0.8136 -0.5323
vn -0.1855 0.8035 -0.5657
vn -0.1654 0.6964 -0.6983
vn -0.2457 0.6231 -0.7426
vn -0.4896 0.4432 -0.7509
vn -0.6255 0.3530 -0.6958
vn -0.7360 0.2591 -0.6255
vn -0.6107 0.0705 -0.7887
vn -0.4929 -0.0233 -0.8698
vn -0.6473 0.1025 -0.7553
vn -0.7016 0.2776 -0.6563
vn -0.7050 0.2686 -0.6564
vn -0.6081 0.4829 -0.6302
vn -0.6297 0.4418 -0.6389
vn -0.3086 0.8711 -0.3820
vn -0.3114 0.8690 -0.3845
vn 0.0213 0.9977 -0.0641
vn -0.8171 -0.2152 0.5348
vn -0.8519 -0.1620 0.4980
vn -0.8627 -0.1436 0.4849
vn -0.8757 -0.0398 0.4812
vn -0.8705 -0.0184 0.4918
vn -0.8164 0.1692 0.5521
vn -0.8160 0.1710 0.5522
vn -0.8101 0.2032 0.5500
vn -0.8119 0.1976 0.5493
vn -0.9001 0.1769 0.3981
vn -0.6760 0.0373 -0.7359
vn -0.6130 0.0625 -0.7876
vn -0.5974 0.0684 -0.7991
vn -0.4564 0.1243 -0.8810
vn -0.4355 0.1329 -0.8903
vn -0.2890 0.2358 -0.9278
vn -0.2796 0.2452 -0.9283
vn -0.2199 0.3137 -0.9237
vn -0.2248 0.3132 -0.9227
vn -0.2376 0.3118 -0.9200
vn -0.8939 -0.1271 0.4299
vn -0.8942 -0.1319 0.4278
vn -0.8592 0.1743 0.4810
vn -0.8667 0.1749 0.4673
vn 0.8948 -0.2261 -0.3850
vn 0.9112 -0.1561 -0.3812
vn 0.9093 -0.1656 -0.3818
vn 0.9237 -0.0842 -0.3738
vn 0.9340 -0.0728 -0.3498
vn 0.9636 0.1879 -0.1901
vn 0.9660 0.1060 -0.2358
vn 0.9681 0.2233 -0.1139
vn 0.9542 0.2778 -0.1108
vn 0.9412 -0.0154 -0.3374
vn 0.9200 -0.1145 -0.3748
vn 0.9204 -0.1176 -0.3729
vn 0.9830 0.1405 -0.1179
vn 0.8717 0.0512 -0.4874
vn 0.8717 0.1683 -0.4601
vn 0.8824 0.1849 -0.4326
vn 0.9503 0.2612 -0.1694
vn 0.9566 0.2693 -0.1114
vn 0.9449 0.3029 0.1246
vn 0.9391 0.3101 0.1479
vn 0.9276 0.3225 0.1887
vn 0.2751 -0.2010 -0.9402
vn 0.2724 -0.2296 -0.9344
vn 0.2730 -0.2237 -0.9357
vn 0.1852 -0.1436 -0.9722
vn 0.1831 -0.1316 -0.9742
vn 0.2351 -0.0449 -0.9709
vn 0.1533 -0.0136 -0.9881
vn 0.3116 -0.1916 -0.9307
vn 0.3307 -0.1397 -0.9334
vn 0.1113 -0.0362 -0.9931
vn 0.2556 -0.2295 -0.9392
vn 0.2394 -0.2108 -0.9478
vn 0.2796 -0.2719 -0.9208
vn 0.7694 -0.3784 0.5145
vn 0.7850 -0.3697 0.4971
vn 0.7856 -0.3694 0.4964
vn 0.8183 -0.3110 0.4834
vn 0.8181 -0.3116 0.4834
vn 0.8414 -0.2394 0.4845
vn 0.8389 -0.2477 0.4846
vn 0.8386 -0.2437 0.4872
vn 0.8408 -0.2379 0.4862
vn 0.8164 -0.3215 0.4797
vn 0.8222 -0.3021 0.4825
vn 0.7973 -0.3786 0.4702
vn 0.8596 0.0788 -0.5048
vn 0.8515 0.0963 -0.5155
vn -0.7060 0.0622 0.7054
vn -0.9711 0.2057 -0.1206
vn -0.9805 0.1848 0.0664
vn -0.9816 0.1900 0.0205
vn -0.9467 0.2614 0.1883
vn -0.9056 0.3631 0.2191
vn -0.8140 0.5334 0.2299
vn -0.7844 0.5792 0.2220
vn -0.5392 0.7934 0.2825
vn -0.6099 0.7498 0.2566
vn -0.1998 0.8612 0.4674
vn -0.1683 0.8563 0.4883
vn 0.5709 0.7703 0.2840
vn 0.4180 0.8148 0.4017
vn 0.8505 0.4845 -0.2047
vn 0.8502 0.4896 -0.1933
vn 0.8481 0.3860 -0.3629
vn 0.8465 0.3891 -0.3634
vn 0.8552 0.3724 -0.3606
vn -0.9617 0.1666 0.2175
vn 0.1700 0.4737 -0.8641
vn 0.1558 0.4910 -0.8571
vn 0.1770 0.4652 -0.8673
vn 0.1154 0.5539 -0.8246
vn 0.0838 0.5942 -0.7999
vn 0.0261 0.9328 -0.3594
vn 0.0268 0.9398 -0.3408
vn 0.2735 0.7825 0.5594
vn 0.1878 0.9032 0.3859
vn 0.3592 0.1230 0.9251
vn 0.3753 0.3008 0.8767
vn 0.3259 0.1551 0.9326
vn 0.3260 0.1436 0.9344
vn 0.3081 0.4378 0.8447
vn 0.8381 0.2181 0.5000
vn 0.7738 0.3508 0.5274
vn 0.7927 0.3162 0.5212
vn 0.5670 0.6751 0.4719
vn 0.6141 0.6153 0.4942
vn 0.6589 0.6177 0.4293
vn 0.6345 0.6440 0.4273
vn 0.8309 0.3608 0.4236
vn 0.8532 0.0343 0.5205
vn 0.8807 0.0852 0.4660
vn 0.8677 0.0599 0.4934
vn 0.1562 0.9571 0.2439
vn 0.4742 0.8429 0.2543
vn -0.2343 0.9686 -0.0830
vn -0.2201 0.9744 -0.0466
vn -0.3281 0.8779 -0.3488
vn 0.7978 0.5052 0.3292
vn 0.8544 0.3530 0.3813
vn -0.6971 0.0358 0.7161
vn -0.9748 0.1825 -0.1284
vn -0.9852 0.1562 0.0711
vn -0.9865 0.1622 0.0212
vn -0.9557 0.1998 0.2160
vn -0.9089 0.3027 0.2869
vn -0.8564 0.3873 0.3415
vn -0.8469 0.4010 0.3492
vn -0.6404 0.5423 0.5438
vn -0.6745 0.5265 0.5176
vn -0.3389 0.6533 0.6770
vn -0.3450 0.6506 0.6765
vn -0.5146 0.8103 0.2803
vn -0.4239 0.7877 0.4470
vn -0.5964 0.7233 -0.3481
vn -0.6020 0.7330 -0.3168
vn -0.5050 0.6018 -0.6187
vn -0.5052 0.6018 -0.6185
vn -0.4930 0.6034 -0.6269
vn -0.9654 0.1400 0.2200
vn 0.9341 0.2128 0.2865
vn 0.9489 0.1993 0.2448
vn 0.9465 0.2017 0.2520
vn 0.9548 0.2807 0.0972
vn 0.9554 0.2772 0.1019
vn 0.9024 0.3741 -0.2137
vn 0.9015 0.3742 -0.2173
vn 0.6856 0.5076 -0.5218
vn 0.6889 0.5052 -0.5199
vn 0.2906 0.7526 -0.5909
vn 0.2585 0.7684 -0.5854
vn -0.0485 0.9200 -0.3890
vn -0.0627 0.9305 -0.3608
vn -0.2621 0.9562 -0.1306
vn -0.3126 0.9448 -0.0981
vn -0.4587 0.8878 -0.0376
vn -0.4739 0.8791 -0.0505
vn -0.5005 0.8626 -0.0734
vn -0.0478 0.2095 0.9766
vn 0.0063 0.1767 0.9842
vn -0.0036 0.1827 0.9832
vn 0.1125 0.1457 0.9829
vn 0.1074 0.1462 0.9834
vn 0.4387 0.4619 0.7708
vn 0.4401 0.4646 0.7684
vn 0.5167 0.8210 0.2429
vn 0.5165 0.8213 0.2420
vn 0.3895 0.8374 -0.3835
vn 0.3487 0.7786 -0.5217
vn 0.0699 0.5673 -0.8205
vn 0.0471 0.5598 -0.8273
vn -0.2100 0.3114 -0.9268
vn -0.2164 0.2944 -0.9308
vn -0.2536 0.0707 -0.9647
vn -0.2516 0.0682 -0.9654
vn -0.2234 0.0329 -0.9742
vn 0.2393 0.1820 0.9537
vn 0.2398 0.1823 0.9535
vn -0.7479 -0.1206 -0.6528
vn -0.7426 -0.0839 -0.6645
vn -0.7445 -0.0964 -0.6606
vn -0.8687 0.1236 -0.4797
vn -0.8806 0.1543 -0.4480
vn -0.6516 0.6708 -0.3542
vn -0.5669 0.7665 -0.3017
vn -0.4530 0.8607 -0.2323
vn -0.7885 0.4695 -0.3973
vn -0.8627 0.3383 -0.3759
vn -0.7864 -0.0105 -0.6177
vn -0.7853 -0.0117 -0.6190
vn 0.7252 0.2412 -0.6450
vn 0.9874 0.1282 0.0926
vn 0.9625 0.2605 -0.0755
vn 0.9573 0.2817 -0.0659
vn 0.8504 0.4827 -0.2092
vn 0.7908 0.5689 -0.2258
vn 0.1092 0.9668 -0.2310
vn 0.1959 0.9511 -0.2388
vn -0.7343 0.6768 -0.0520
vn -0.6851 0.7250 -0.0702
vn -0.9258 0.3112 0.2145
vn -0.9255 0.3147 0.2109
vn -0.8994 0.1712 0.4021
vn -0.9021 0.1590 0.4012
vn -0.8878 0.2182 0.4051
vn 0.9383 0.1984 -0.2833
vn -0.5726 0.0774 0.8162
vn -0.3553 0.6483 0.6735
vn -0.3790 0.5810 0.7203
vn 0.1244 0.9511 0.2826
vn 0.2610 0.9447 0.1985
vn 0.5775 0.7157 -0.3928
vn 0.5909 0.7529 -0.2896
vn 0.4387 0.4169 -0.7961
vn 0.3149 0.2689 -0.9102
vn 0.3187 0.2571 -0.9123
vn 0.2998 0.3140 -0.9009
vn -0.5173 0.1841 0.8358
vn -0.5039 0.2076 0.8385
vt 0.851385 0.867970
vt 0.856814 0.867769
vt 0.880138 0.936333
vt 0.856010 0.939148
vt 0.821024 0.963879
vt 0.872109 0.955138
vt 0.885768 0.983724
vt 0.858824 0.987806
vt 0.894112 0.951714
vt 0.908368 0.968061
vt 0.852591 0.832984
vt 0.858020 0.832783
vt 0.747102 0.452385
vt 0.749003 0.434902
vt 0.751584 0.435115
vt 0.750541 0.452669
vt 0.748470 0.475754
vt 0.751348 0.475461
vt 0.751811 0.511257
vt 0.754811 0.511266
vt 0.750996 0.559375
vt 0.755279 0.559389
vt 0.752980 0.619620
vt 0.751887 0.586434
vt 0.756361 0.587270
vt 0.757606 0.619386
vt 0.751921 0.587453
vt 0.756358 0.587194
vt 0.963894 0.916071
vt 0.931656 0.921466
vt 0.921938 0.828807
vt 0.928372 0.828606
vt 0.926467 0.770937
vt 0.921038 0.771138
vt 0.992266 0.640470
vt 0.943085 0.647720
vt 0.939566 0.577179
vt 0.966295 0.561885
vt 0.988022 0.948577
vt 0.929142 0.987986
vt 0.751404 0.535316
vt 0.755045 0.535328
vt 0.954081 0.443515
vt 0.957812 0.443377
vt 0.954734 0.498046
vt 0.949787 0.497757
vt 0.962274 0.532061
vt 0.941410 0.533279
vt 0.973332 0.763959
vt 0.957998 0.783106
vt 0.755162 0.547293
vt 0.751205 0.547074
vt 0.894177 0.727099
vt 0.907532 0.660037
vt 0.910774 0.660346
vt 0.897753 0.728029
vt 0.880425 0.786362
vt 0.876950 0.785107
vt 0.885766 0.757749
vt 0.889193 0.759128
vt 0.861662 0.821851
vt 0.863512 0.822643
vt 0.912243 0.620594
vt 0.915485 0.620903
vt 0.917036 0.528969
vt 0.925572 0.425074
vt 0.928049 0.425310
vt 0.924350 0.529627
vt 0.902605 0.728349
vt 0.914569 0.581657
vt 0.919624 0.582109
vt 0.920616 0.474715
vt 0.925095 0.475113
vt 0.866331 0.822958
vt 0.921987 0.555868
vt 0.915803 0.555313
vt 0.758526 0.619340
vt 0.756131 0.559391
vt 0.759696 0.559403
vt 0.762377 0.619145
vt 0.755769 0.535330
vt 0.755407 0.511268
vt 0.757904 0.511277
vt 0.758800 0.535340
vt 0.751491 0.475446
vt 0.753590 0.475231
vt 0.749132 0.452553
vt 0.750541 0.452669
vt 0.749580 0.446918
vt 0.750783 0.441346
vt 0.751212 0.441381
vt 0.750877 0.447025
vt 0.546745 0.400151
vt 0.550199 0.399165
vt 0.561465 0.451699
vt 0.558011 0.452685
vt 0.473164 0.543350
vt 0.570322 0.490657
vt 0.583210 0.517610
vt 0.484907 0.581203
vt 0.586252 0.579840
vt 0.549524 0.605720
vt 0.510781 0.599493
vt 0.525086 0.672272
vt 0.553404 0.677522
vt 0.514330 0.694915
vt 0.751471 0.531324
vt 0.755007 0.531399
vt 0.577168 0.529615
vt 0.579253 0.585902
vt 0.995785 0.587187
vt 0.933535 0.618230
vt 0.955149 0.714743
vt 0.976181 0.709336
vt 0.848116 0.718869
vt 0.853548 0.719892
vt 0.846377 0.765271
vt 0.844260 0.764746
vt 0.850404 0.662411
vt 0.858467 0.663146
vt 0.849901 0.601089
vt 0.860001 0.601061
vt 0.850697 0.533365
vt 0.858619 0.533343
vt 0.851718 0.467476
vt 0.858306 0.467458
vt 0.853440 0.430081
vt 0.858042 0.430315
vt 0.855493 0.393453
vt 0.858932 0.393629
vt 0.858418 0.369875
vt 0.862779 0.370098
vt 0.862365 0.341132
vt 0.842143 0.764222
vt 0.866870 0.814544
vt 0.870099 0.815927
vt 0.755139 0.801724
vt 0.754012 0.790902
vt 0.764703 0.793462
vt 0.761514 0.803250
vt 0.755300 0.745173
vt 0.765569 0.745863
vt 0.754867 0.682072
vt 0.765154 0.681769
vt 0.762377 0.619145
vt 0.750997 0.559375
vt 0.759696 0.559403
vt 0.751811 0.511257
vt 0.748470 0.475754
vt 0.747102 0.452385
vt 0.749003 0.434902
vt 0.755083 0.713622
vt 0.765361 0.713816
vt 0.924722 0.502370
vt 0.918826 0.501842
vt 0.850299 0.567227
vt 0.859310 0.567202
vt 0.901563 0.693115
vt 0.904679 0.693925
s 1
f 10/1/10 9/2/9 7/3/7 8/4/8
f 6/5/6 5/6/5 3/7/3 1/8/1
f 5/6/5 4/9/4 2/10/2 3/7/3
f 6/5/6 8/4/8 5/6/5
f 8/4/8 7/3/7 4/9/4 5/6/5
f 12/11/11 11/12/11 9/2/9 10/1/10
f 16/13/14 14/14/12 13/15/12 15/16/13
f 18/17/16 16/13/14 15/16/13 17/18/15
f 20/19/18 18/17/16 17/18/15 19/20/17
f 22/21/20 20/19/18 19/20/17 21/22/19
f 24/23/21 69/24/59 68/25/58 23/26/21
f 25/23/22 67/27/57 71/28/61 26/26/22
f 27/21/23 29/19/25 30/20/26 28/22/24
f 29/19/25 31/17/27 32/18/28 30/20/26
f 31/17/27 33/13/29 34/16/30 32/18/28
f 33/13/29 35/14/31 36/15/31 34/16/30
f 42/29/36 41/30/35 39/31/33 40/32/34
f 38/33/32 40/32/34 39/31/33 37/34/32
f 62/35/53 61/36/52 59/37/50 60/38/51
f 42/29/36 44/39/37 43/40/37 41/30/35
f 65/41/55 45/19/38 46/20/39 66/42/56
f 45/19/38 47/17/40 48/18/41 46/20/39
f 47/17/40 49/13/42 50/16/43 48/18/41
f 49/13/42 51/14/44 52/15/44 50/16/43
f 53/43/45 54/44/45 56/45/47 55/46/46
f 55/46/46 56/45/47 58/47/49 57/48/48
f 57/48/48 58/47/49 60/38/51 59/37/50
f 64/49/54 63/50/54 61/36/52 62/35/53
f 68/25/58 69/24/59 22/21/20 21/22/19
f 71/28/61 67/27/57 27/21/23 28/22/24
f 72/51/60 70/52/60 65/41/55 66/42/56
f 79/53/67 81/54/69 82/55/70 80/56/68
f 76/57/64 75/58/63 77/59/65 78/60/66
f 78/60/66 77/59/65 79/53/67 80/56/68
f 89/61/76 90/58/77 91/57/78 103/62/76
f 82/55/70 81/54/69 83/63/71 84/64/72
f 85/65/73 87/66/75 88/67/75 86/68/74
f 92/53/79 95/54/82 96/55/83 93/56/80
f 104/53/89 106/54/91 107/55/92 105/69/90
f 119/61/102 120/58/103 121/57/104 132/62/102
f 96/55/83 95/54/82 97/63/84 98/64/85
f 99/65/86 101/66/88 102/67/88 100/68/87
f 124/54/107 126/70/109 127/71/110 125/55/108
f 90/58/77 92/53/79 93/56/80 91/57/78
f 107/55/92 106/54/91 108/63/93 109/64/94
f 109/64/94 108/63/93 110/70/95 111/71/96
f 111/71/96 110/70/95 112/65/97 113/68/98
f 113/68/98 112/65/97 114/72/99 115/73/100
f 115/73/100 114/72/99 116/66/101 117/67/101
f 141/56/121 142/53/122 140/54/120 139/55/119
f 122/53/105 124/54/107 125/55/108 123/56/106
f 126/70/109 128/72/111 129/73/112 127/71/110
f 129/73/112 128/72/111 130/66/113 131/67/113
f 120/58/103 122/53/105 123/56/106 121/57/104
f 180/61/153 178/59/152 177/60/151 179/62/153
f 137/64/117 138/63/118 133/65/114 134/68/115
f 139/55/119 140/54/120 138/63/118 137/64/117
f 143/60/123 144/59/124 142/53/122 141/56/121
f 104/53/89 105/69/90 118/74/81 94/61/81
f 148/68/127 147/65/126 149/72/128 150/73/129
f 150/73/129 149/72/128 151/66/130 152/67/130
f 164/75/139 163/76/138 155/65/132 156/68/133
f 156/68/133 155/65/132 157/72/134 158/73/135
f 158/73/135 157/72/134 159/66/136 160/67/136
f 153/64/131 154/63/131 147/65/126 148/68/127
f 172/71/146 166/70/141 165/65/140 167/68/142
f 167/68/142 165/65/140 168/72/143 169/73/144
f 169/73/144 168/72/143 170/66/145 171/67/145
f 173/64/147 174/63/148 166/70/141 172/71/146
f 175/55/149 176/54/150 174/63/148 173/64/147
f 178/59/152 176/54/150 175/55/149 177/60/151
f 181/58/154 183/57/156 192/62/155 182/61/155
f 184/53/157 186/54/159 187/55/160 185/56/158
f 146/61/125 144/59/124 143/60/123 145/62/125
f 186/54/159 188/70/161 189/71/162 187/55/160
f 181/58/154 184/53/157 185/56/158 183/57/156
f 73/61/62 75/58/63 76/57/64 74/62/62
f 97/63/84 99/65/86 100/68/87 98/64/85
f 83/63/71 85/65/73 86/68/74 84/64/72
f 189/71/162 188/70/161 190/66/163 191/67/163
f 163/76/138 164/75/139 161/64/137 162/63/137
f 133/65/114 135/66/116 136/67/116 134/68/115
f 193/77/164 195/78/165 196/79/166 194/80/164
f 217/81/184 197/82/167 198/83/168 218/84/185
f 197/82/167 199/85/169 200/86/170 198/83/168
f 199/85/169 201/87/171 202/88/172 200/86/170
f 219/89/186 203/90/173 204/91/173 220/92/187
f 205/23/174 207/21/175 208/22/176 206/26/174
f 207/21/175 209/19/177 210/20/178 208/22/176
f 209/19/177 211/17/179 212/18/180 210/20/178
f 211/17/179 213/13/181 214/16/182 212/18/180
f 213/13/181 215/14/183 216/15/183 214/16/182
f 195/78/165 217/81/184 218/84/185 196/79/166
f 201/87/171 219/89/186 220/92/187 202/88/172
f 221/93/188 222/94/188 224/95/190 223/96/189
f 233/97/199 232/98/198 226/99/192 225/100/191
f 226/99/192 228/101/194 227/102/193 231/103/197
f 225/100/191 226/99/192 231/103/197
f 223/96/189 224/95/190 232/98/198 233/97/199
f 229/104/195 230/105/196 234/106/200
f 324/71/280 323/70/279 331/76/286 332/75/287
f 235/21/201 273/107/234 274/108/235 236/22/201
f 237/19/202 239/17/204 240/18/205 238/20/203
f 239/17/204 241/13/206 242/16/207 240/18/205
f 241/13/206 243/14/208 244/15/208 242/16/207
f 245/93/209 246/94/209 248/95/211 247/96/210
f 257/97/220 256/98/219 250/109/213 249/100/212
f 250/109/213 252/110/215 251/102/214 255/103/218
f 228/101/194 230/105/196 229/104/195 227/102/193
f 249/100/212 250/109/213 255/103/218
f 247/96/210 248/95/211 256/98/219 257/97/220
f 253/104/216 254/105/217 258/106/221
f 259/43/222 260/44/222 262/45/224 261/46/223
f 261/46/223 262/45/224 264/47/226 263/48/225
f 263/48/225 264/47/226 266/38/228 265/37/227
f 265/37/227 266/38/228 268/111/230 267/112/229
f 269/113/231 270/114/232 272/49/233 271/50/233
f 274/108/235 273/107/234 237/19/202 238/20/203
f 277/115/238 278/116/239 276/117/237 294/118/255
f 277/115/238 279/119/240 280/120/241 278/116/239
f 279/119/240 281/121/242 282/122/243 280/120/241
f 281/121/242 283/123/244 284/124/245 282/122/243
f 283/123/244 285/125/246 286/126/247 284/124/245
f 285/125/246 287/127/248 288/128/249 286/126/247
f 287/127/248 289/129/250 290/130/251 288/128/249
f 289/129/250 291/131/252 292/132/253 290/130/251
f 291/131/252 293/133/254 292/132/253
f 275/134/236 277/115/238 294/118/255
f 295/135/256 297/136/258 310/62/257 296/61/257
f 297/136/258 295/135/256 298/58/259 299/57/260
f 302/63/263 304/65/265 305/68/266 303/64/264
f 415/123/364 417/127/366 418/128/367 416/124/365
f 305/68/266 304/65/265 306/72/267 307/73/268
f 307/73/268 306/72/267 308/66/269 309/67/269
f 312/64/270 311/63/270 313/70/271 314/71/272
f 314/71/272 313/70/271 315/65/273 316/68/274
f 316/68/274 315/65/273 317/72/275 318/73/276
f 318/73/276 317/72/275 319/66/277 320/67/277
f 322/64/278 321/63/278 323/70/279 324/71/280
f 332/75/287 331/76/286 325/65/281 326/68/282
f 326/68/282 325/65/281 327/72/283 328/73/284
f 328/73/284 327/72/283 329/66/285 330/67/285
f 270/114/232 269/113/231 267/112/229 268/111/230
f 335/115/290 336/116/291 334/117/289 352/118/307
f 335/115/290 337/119/292 338/120/293 336/116/291
f 337/119/292 339/121/294 340/122/295 338/120/293
f 339/121/294 341/123/296 342/124/297 340/122/295
f 341/123/296 343/125/298 344/126/299 342/124/297
f 343/125/298 345/127/300 346/128/301 344/126/299
f 345/127/300 347/129/302 348/130/303 346/128/301
f 347/129/302 349/131/304 350/132/305 348/130/303
f 349/131/304 351/133/306 350/132/305
f 333/134/288 335/115/290 352/118/307
f 353/137/308 355/138/309 356/139/310 354/140/308
f 355/138/309 357/141/311 358/142/312 356/139/310
f 357/141/311 359/143/313 360/144/314 358/142/312
f 359/143/313 361/23/315 362/145/316 360/144/314
f 361/23/315 363/146/317 364/147/318 362/145/316
f 363/146/317 365/148/319 366/83/320 364/147/318
f 365/148/319 367/149/321 368/86/322 366/83/320
f 367/149/321 369/150/323 370/88/324 368/86/322
f 369/150/323 371/151/325 372/15/325 370/88/324
f 373/137/326 375/138/327 376/139/328 374/140/326
f 375/138/327 377/141/329 378/142/330 376/139/328
f 393/152/344 379/143/331 380/144/332 394/153/345
f 379/143/331 381/23/333 382/145/334 380/144/332
f 381/23/333 383/146/335 384/147/336 382/145/334
f 383/146/335 385/148/337 386/83/338 384/147/336
f 385/148/337 387/149/339 388/86/340 386/83/338
f 387/149/339 389/150/341 390/88/342 388/86/340
f 389/150/341 391/151/343 392/15/343 390/88/342
f 377/141/329 393/152/344 394/153/345 378/142/330
f 396/64/346 395/63/346 397/70/347 398/71/348
f 408/75/357 407/76/356 399/65/349 400/68/350
f 406/154/355 405/155/354 401/72/351 402/73/352
f 402/73/352 401/72/351 403/66/353 404/67/353
f 400/68/350 399/65/349 405/155/354 406/154/355
f 398/71/348 397/70/347 407/76/356 408/75/357
f 411/115/360 412/116/361 410/117/359 424/118/373
f 411/115/360 413/119/362 414/120/363 412/116/361
f 413/119/362 415/123/364 416/124/365 414/120/363
f 417/127/366 419/129/368 420/130/369 418/128/367
f 419/129/368 421/131/370 422/132/371 420/130/369
f 421/131/370 423/133/372 422/132/371
f 409/134/358 411/115/360 424/118/373
f 438/156/385 427/123/375 428/124/376 439/157/386
f 427/123/375 429/125/377 430/126/378 428/124/376
f 429/125/377 431/127/379 432/128/380 430/126/378
f 431/127/379 433/129/381 434/130/381 432/128/380
f 433/129/381 435/131/382 436/132/383 434/130/381
f 435/131/382 437/133/384 436/132/383
f 425/121/374 438/156/385 439/157/386 426/122/374
f 300/158/261 302/63/263 303/64/264 301/159/262
f 298/58/259 300/158/261 301/159/262 299/57/260
f 252/110/215 254/105/217 253/104/216 251/102/214
